<svg width="270" height="47" viewBox="0 0 270 47" fill="none" xmlns="http://www.w3.org/2000/svg">
<rect x="226" y="1" width="43" height="23" rx="11.5" fill="white" stroke="#970480" stroke-width="2"/>
<path d="M238.158 16.077C237.659 16.077 237.216 15.967 236.827 15.747C236.438 15.527 236.13 15.197 235.903 14.757C235.683 14.3097 235.573 13.745 235.573 13.063C235.573 12.3737 235.687 11.809 235.914 11.369C236.149 10.929 236.46 10.6027 236.849 10.39C237.245 10.17 237.681 10.06 238.158 10.06C238.737 10.06 239.247 10.1847 239.687 10.434C240.134 10.6833 240.486 11.0317 240.743 11.479C241.007 11.9263 241.139 12.4543 241.139 13.063C241.139 13.6717 241.007 14.1997 240.743 14.647C240.486 15.0943 240.134 15.4463 239.687 15.703C239.247 15.9523 238.737 16.077 238.158 16.077ZM234.902 16V7.838H236.277V11.49L236.167 13.052L236.211 14.614V16H234.902ZM238.004 14.9C238.334 14.9 238.627 14.8267 238.884 14.68C239.148 14.5333 239.357 14.3207 239.511 14.042C239.665 13.7633 239.742 13.437 239.742 13.063C239.742 12.6817 239.665 12.3553 239.511 12.084C239.357 11.8053 239.148 11.5927 238.884 11.446C238.627 11.2993 238.334 11.226 238.004 11.226C237.674 11.226 237.377 11.2993 237.113 11.446C236.849 11.5927 236.64 11.8053 236.486 12.084C236.332 12.3553 236.255 12.6817 236.255 13.063C236.255 13.437 236.332 13.7633 236.486 14.042C236.64 14.3207 236.849 14.5333 237.113 14.68C237.377 14.8267 237.674 14.9 238.004 14.9ZM245.204 16.077C244.551 16.077 243.979 15.9487 243.488 15.692C243.004 15.428 242.626 15.0687 242.355 14.614C242.091 14.1593 241.959 13.6423 241.959 13.063C241.959 12.4763 242.087 11.9593 242.344 11.512C242.608 11.0573 242.967 10.7017 243.422 10.445C243.884 10.1883 244.408 10.06 244.995 10.06C245.567 10.06 246.077 10.1847 246.524 10.434C246.971 10.6833 247.323 11.0353 247.58 11.49C247.837 11.9447 247.965 12.48 247.965 13.096C247.965 13.1547 247.961 13.2207 247.954 13.294C247.954 13.3673 247.95 13.437 247.943 13.503H243.048V12.59H247.217L246.678 12.876C246.685 12.5387 246.616 12.2417 246.469 11.985C246.322 11.7283 246.121 11.5267 245.864 11.38C245.615 11.2333 245.325 11.16 244.995 11.16C244.658 11.16 244.361 11.2333 244.104 11.38C243.855 11.5267 243.657 11.732 243.51 11.996C243.371 12.2527 243.301 12.557 243.301 12.909V13.129C243.301 13.481 243.382 13.7927 243.543 14.064C243.704 14.3353 243.932 14.5443 244.225 14.691C244.518 14.8377 244.856 14.911 245.237 14.911C245.567 14.911 245.864 14.8597 246.128 14.757C246.392 14.6543 246.627 14.493 246.832 14.273L247.569 15.12C247.305 15.428 246.971 15.6663 246.568 15.835C246.172 15.9963 245.717 16.077 245.204 16.077ZM251.497 16.077C250.851 16.077 250.353 15.912 250.001 15.582C249.649 15.2447 249.473 14.7497 249.473 14.097V8.828H250.848V14.064C250.848 14.3427 250.917 14.559 251.057 14.713C251.203 14.867 251.405 14.944 251.662 14.944C251.97 14.944 252.226 14.8633 252.432 14.702L252.817 15.681C252.655 15.813 252.457 15.912 252.223 15.978C251.988 16.044 251.746 16.077 251.497 16.077ZM248.505 11.27V10.17H252.421V11.27H248.505ZM257.567 16V14.812L257.49 14.559V12.48C257.49 12.0767 257.369 11.765 257.127 11.545C256.885 11.3177 256.518 11.204 256.027 11.204C255.697 11.204 255.371 11.2553 255.048 11.358C254.733 11.4607 254.465 11.6037 254.245 11.787L253.706 10.786C254.021 10.544 254.395 10.3643 254.828 10.247C255.268 10.1223 255.723 10.06 256.192 10.06C257.043 10.06 257.699 10.2653 258.161 10.676C258.63 11.0793 258.865 11.7063 258.865 12.557V16H257.567ZM255.719 16.077C255.279 16.077 254.894 16.0037 254.564 15.857C254.234 15.703 253.977 15.494 253.794 15.23C253.618 14.9587 253.53 14.6543 253.53 14.317C253.53 13.987 253.607 13.69 253.761 13.426C253.922 13.162 254.183 12.953 254.542 12.799C254.901 12.645 255.378 12.568 255.972 12.568H257.677V13.481H256.071C255.602 13.481 255.286 13.558 255.125 13.712C254.964 13.8587 254.883 14.042 254.883 14.262C254.883 14.5113 254.982 14.7093 255.18 14.856C255.378 15.0027 255.653 15.076 256.005 15.076C256.342 15.076 256.643 14.999 256.907 14.845C257.178 14.691 257.373 14.4637 257.49 14.163L257.721 14.988C257.589 15.3327 257.351 15.6003 257.006 15.791C256.669 15.9817 256.24 16.077 255.719 16.077Z" fill="#970480"/>
<g clip-path="url(#clip0_193_387)">
<path d="M208.294 36.6915H191.221C189.947 36.6901 188.725 36.1555 187.823 35.2043C186.921 34.2533 186.412 32.9633 186.409 31.6169V12.0867C186.409 10.7378 186.917 9.44437 187.819 8.49057C188.722 7.53677 189.947 7.00065 191.224 7H210.183C211.46 7 212.685 7.53584 213.588 8.48971C214.492 9.44358 214.999 10.7374 215 12.0867V17.2928V46.3384L208.294 36.6915Z" fill="#970480"/>
<path d="M2.5603 35.3081V18.6191H4.22226V33.7823H13.0261V35.3081H2.5603ZM24.0798 35.4511C22.0734 35.4511 20.4939 34.8392 19.3409 33.6154C18.188 32.3915 17.6116 30.5795 17.6116 28.1795V18.6191H19.2735V28.108C19.2735 30.0789 19.6928 31.5332 20.5312 32.471C21.3697 33.4087 22.5525 33.8777 24.0798 33.8777C25.6219 33.8777 26.8123 33.4087 27.6507 32.471C28.4892 31.5332 28.9084 30.0789 28.9084 28.108V18.6191H30.5255V28.1795C30.5255 30.5795 29.949 32.3915 28.7961 33.6154C27.6582 34.8392 26.0861 35.4511 24.0798 35.4511ZM57.6051 31.1597L57.5377 29.014L67.0603 18.6191H68.9693L62.0294 26.3438L61.0861 27.4166L57.6051 31.1597ZM56.1677 35.3081V18.6191H57.8296V35.3081H56.1677ZM67.4645 35.3081L60.6819 27.0113L61.8049 25.7238L69.4409 35.3081H67.4645ZM78.1307 35.3081V29.1093L78.5127 30.206L71.8426 18.6191H73.6168L79.4783 28.7994H78.5356L84.3967 18.6191H86.0591L79.3889 30.206L79.7709 29.1093V35.3081H78.1307Z" fill="black"/>
<path d="M44.607 35.4511C43.4242 35.4511 42.3311 35.2445 41.328 34.8313C40.3248 34.4021 39.4564 33.8061 38.7228 33.0431C37.9891 32.2802 37.4127 31.3822 36.9935 30.3491C36.5892 29.316 36.387 28.1874 36.387 26.9636C36.387 25.7398 36.5892 24.6112 36.9935 23.5781C37.4127 22.545 37.9891 21.647 38.7228 20.8841C39.4714 20.1211 40.3473 19.533 41.3505 19.1198C42.3536 18.6907 43.4466 18.4761 44.6294 18.4761C45.7674 18.4761 46.8379 18.6827 47.8411 19.0959C48.8442 19.4933 49.6902 20.0973 50.3789 20.9079L49.3234 22.0285C48.6796 21.3291 47.9684 20.8284 47.1898 20.5264C46.4112 20.2085 45.5727 20.0496 44.6744 20.0496C43.7311 20.0496 42.8552 20.2245 42.0467 20.5741C41.2382 20.9079 40.5345 21.3926 39.9356 22.0285C39.3367 22.6483 38.865 23.3794 38.5206 24.2219C38.1912 25.0483 38.0266 25.9623 38.0266 26.9636C38.0266 27.9649 38.1912 28.8868 38.5206 29.7292C38.865 30.5557 39.3367 31.2868 39.9356 31.9226C40.5345 32.5425 41.2382 33.0273 42.0467 33.3769C42.8552 33.7107 43.7311 33.8776 44.6744 33.8776C45.5727 33.8776 46.4112 33.7187 47.1898 33.4008C47.9684 33.0829 48.6796 32.5743 49.3234 31.8749L50.3789 32.9954C49.6902 33.8061 48.8442 34.418 47.8411 34.8313C46.8379 35.2445 45.7599 35.4511 44.607 35.4511Z" fill="#212C3E"/>
<path d="M95.4866 35.3081V22.3622H90.6576V18.6191H104.74V22.3622H99.9336V35.3081H95.4866ZM109.001 35.3081L115.941 18.6191H120.321L127.283 35.3081H122.656L117.222 20.9318H118.973L113.538 35.3081H109.001ZM112.797 32.0657L113.943 28.5849H121.623L122.769 32.0657H112.797ZM130.789 35.3081V18.6191H135.236V31.565H142.738V35.3081H130.789ZM150.719 31.6127L150.471 26.3199L157.231 18.6191H162.128L155.39 26.3676L152.92 29.1093L150.719 31.6127ZM146.743 35.3081V18.6191H151.145V35.3081H146.743ZM157.299 35.3081L152.179 28.418L155.076 25.1279L162.465 35.3081H157.299ZM171.073 35.6419C169.786 35.6419 168.543 35.475 167.345 35.1412C166.162 34.7915 165.196 34.3465 164.448 33.8061L165.908 30.3253C166.611 30.802 167.42 31.1995 168.333 31.5173C169.261 31.8193 170.182 31.9703 171.096 31.9703C171.71 31.9703 172.203 31.9147 172.578 31.8035C172.952 31.6762 173.221 31.5173 173.386 31.3266C173.566 31.12 173.656 30.8816 173.656 30.6114C173.656 30.2299 173.491 29.9279 173.161 29.7053C172.833 29.4828 172.406 29.3001 171.882 29.157C171.357 29.014 170.774 28.8709 170.13 28.7278C169.501 28.5849 168.864 28.402 168.221 28.1795C167.592 27.957 167.015 27.6709 166.491 27.3213C165.967 26.9557 165.54 26.4868 165.212 25.9146C164.882 25.3265 164.717 24.5875 164.717 23.6973C164.717 22.696 164.971 21.79 165.481 20.9794C166.005 20.1688 166.783 19.5171 167.817 19.0244C168.85 18.5317 170.137 18.2853 171.679 18.2853C172.712 18.2853 173.723 18.4125 174.712 18.6668C175.715 18.9052 176.605 19.2628 177.384 19.7397L176.014 23.2443C175.266 22.8152 174.524 22.4973 173.79 22.2907C173.057 22.0682 172.346 21.9569 171.657 21.9569C171.043 21.9569 170.549 22.0285 170.174 22.1715C169.8 22.2987 169.531 22.4735 169.366 22.696C169.201 22.9185 169.119 23.1728 169.119 23.4589C169.119 23.8245 169.277 24.1185 169.591 24.341C169.92 24.5477 170.346 24.7225 170.871 24.8656C171.41 24.9927 171.994 25.1279 172.623 25.2709C173.266 25.4139 173.902 25.5967 174.532 25.8192C175.175 26.0259 175.759 26.3119 176.284 26.6775C176.808 27.0272 177.226 27.4961 177.541 28.0842C177.871 28.6563 178.036 29.3795 178.036 30.2537C178.036 31.2233 177.773 32.1213 177.249 32.9478C176.74 33.7584 175.969 34.4101 174.936 34.9028C173.918 35.3955 172.63 35.6419 171.073 35.6419Z" fill="#970480"/>
<path d="M205.21 20.4558H204.056C204.056 19.9685 203.873 19.5012 203.548 19.1566C203.224 18.8119 202.783 18.6181 202.325 18.6176V17.3922C203.089 17.3931 203.823 17.7162 204.365 18.2906C204.905 18.8649 205.21 19.6436 205.21 20.4558Z" fill="white"/>
<path d="M207.293 20.3616H206.156C206.155 19.242 205.736 18.1685 204.99 17.3768C204.244 16.585 203.233 16.1397 202.179 16.1384V14.9318C203.535 14.9333 204.834 15.506 205.793 16.5239C206.752 17.5418 207.291 18.922 207.293 20.3616ZM206.156 30.0147H206.059C194.896 29.3329 193.311 19.33 193.089 16.2772C193.054 15.7986 193.2 15.3249 193.494 14.9605C193.788 14.5961 194.207 14.3707 194.658 14.3339C194.703 14.3302 194.748 14.3284 194.794 14.3284H197.787C198.015 14.3282 198.237 14.4005 198.426 14.5361C198.614 14.6716 198.76 14.8641 198.844 15.0886L199.708 17.345C199.791 17.5644 199.812 17.8048 199.767 18.0365C199.722 18.2682 199.615 18.4809 199.458 18.6482L198.248 19.9453C198.436 21.0864 198.95 22.1384 199.72 22.9586C200.491 23.7788 201.48 24.3276 202.554 24.5305L203.787 23.2334C203.947 23.0682 204.149 22.9566 204.368 22.9126C204.588 22.8686 204.814 22.8942 205.02 22.986L207.162 23.8971C207.37 23.9893 207.547 24.1453 207.672 24.3451C207.796 24.5449 207.862 24.7796 207.861 25.0192V28.2048C207.861 28.6848 207.681 29.1452 207.361 29.4845C207.042 29.824 206.608 30.0147 206.156 30.0147ZM194.794 15.5351C194.719 15.5348 194.645 15.5502 194.576 15.5803C194.507 15.6104 194.444 15.6547 194.391 15.7105C194.339 15.7664 194.296 15.8327 194.268 15.9058C194.239 15.979 194.224 16.0573 194.223 16.1365C194.223 16.1535 194.224 16.1702 194.226 16.1867C194.486 19.7583 196.163 28.2048 206.122 28.8081C206.272 28.8176 206.42 28.7634 206.533 28.6573C206.645 28.5511 206.714 28.4018 206.723 28.2422L206.724 28.2048V25.0192L204.582 24.1082L202.952 25.8277L202.679 25.7915C197.736 25.1339 197.066 19.885 197.066 19.8307L197.032 19.5411L198.645 17.8096L197.793 15.5351H194.794Z" fill="#F5F5F5"/>
</g>
<defs>
<clipPath id="clip0_193_387">
<rect width="215" height="40" fill="white" transform="translate(0 7)"/>
</clipPath>
</defs>
</svg>
