<svg width="50" height="50" viewBox="0 0 50 50" fill="none" xmlns="http://www.w3.org/2000/svg">
<path d="M24.9999 8.33332C28.4458 8.33332 31.2499 11.1375 31.2499 14.5833H35.4166C35.4166 8.83957 30.7437 4.16666 24.9999 4.16666C19.2562 4.16666 14.5833 8.83957 14.5833 14.5833V18.75H12.4999C10.202 18.75 8.33325 20.6187 8.33325 22.9167V41.6667C8.33325 43.9646 10.202 45.8333 12.4999 45.8333H37.4999C39.7978 45.8333 41.6666 43.9646 41.6666 41.6667V22.9167C41.6666 20.6187 39.7978 18.75 37.4999 18.75H18.7499V14.5833C18.7499 11.1375 21.5541 8.33332 24.9999 8.33332ZM37.5041 41.6667H27.0833V36.9208C28.3228 36.1979 29.1666 34.8687 29.1666 33.3333C29.1666 31.0354 27.2978 29.1667 24.9999 29.1667C22.702 29.1667 20.8333 31.0354 20.8333 33.3333C20.8333 34.8667 21.677 36.1979 22.9166 36.9208V41.6667H12.4999V22.9167H37.4999L37.5041 41.6667Z" fill="#970480"/>
</svg>
