<svg width="73" height="74" viewBox="0 0 73 74" fill="none" xmlns="http://www.w3.org/2000/svg">
<path d="M24.055 37.0181C30.0537 37.0181 34.5791 32.4133 34.5791 26.3094C34.5791 20.2054 30.0537 15.6006 24.055 15.6006C18.0563 15.6006 13.531 20.2054 13.531 26.3094C13.531 32.4133 18.0563 37.0181 24.055 37.0181ZM27.0619 39.9186H21.0482C12.7582 39.9186 6.01379 46.7814 6.01379 55.2168V58.2765H42.0963V55.2168C42.0963 46.7814 35.3519 39.9186 27.0619 39.9186ZM55.2183 8.20853L50.9665 12.5349C54.9386 16.5828 57.1306 21.9616 57.1306 27.6801C57.1306 33.3985 54.9386 38.7774 50.9665 42.8253L55.2183 47.1516C60.3299 41.9472 63.1444 35.0324 63.1444 27.6801C63.1444 20.3278 60.3299 13.413 55.2183 8.20853Z" fill="#970480"/>
<path d="M46.7118 16.8612L42.4601 21.1936C44.165 22.9223 45.1031 25.2262 45.1031 27.6801C45.1031 30.1339 44.165 32.4378 42.4601 34.1665L46.7118 38.499C49.5503 35.6107 51.1169 31.7708 51.1169 27.6801C51.1169 23.5893 49.5503 19.7495 46.7118 16.8612Z" fill="#970480"/>
</svg>
