<svg width="26" height="35" viewBox="0 0 26 35" fill="none" xmlns="http://www.w3.org/2000/svg">
<path d="M19.9014 26.417H4.37656C3.21759 26.4158 2.10631 25.9401 1.28596 25.0939C0.465607 24.2477 0.00335935 23.1 0 21.9021V4.52571C0.000671869 3.32559 0.462244 2.1748 1.2826 1.32619C2.10362 0.477574 3.21758 0.000574632 4.37857 0H21.6194C22.7811 -1.37679e-07 23.895 0.476745 24.7161 1.32542C25.5377 2.17409 25.9993 3.32522 26 4.52571V9.15767V35L19.9014 26.417Z" fill="#970480"/>
<path d="M18.9911 11.8879H17.9578C17.9564 10.8917 17.5755 9.93657 16.8976 9.23219C16.219 8.52774 15.2999 8.13152 14.3411 8.13034V7.05682C15.574 7.05821 16.7558 7.56769 17.6279 8.47338C18.4993 9.37901 18.9898 10.607 18.9911 11.8879ZM17.9578 20.4764H17.8697C7.7178 19.8698 6.27664 10.97 6.07508 8.25385C6.04351 7.82804 6.17587 7.40663 6.44327 7.08243C6.71067 6.75818 7.09163 6.55762 7.50147 6.52485C7.54246 6.52163 7.58344 6.52002 7.62509 6.52002H10.3475C10.5544 6.51981 10.7567 6.58417 10.928 6.70476C11.0993 6.82535 11.2317 6.99659 11.3083 7.19638L12.0937 9.20393C12.1696 9.39911 12.1884 9.61299 12.1474 9.81913C12.1071 10.0253 12.0097 10.2145 11.8666 10.3634L10.7661 11.5175C10.9374 12.5327 11.405 13.4686 12.1051 14.1984C12.8059 14.9282 13.7055 15.4165 14.6824 15.597L15.8031 14.4429C15.9489 14.2959 16.1323 14.1967 16.3318 14.1575C16.5314 14.1184 16.7377 14.1411 16.9244 14.2228L18.8722 15.0334C19.0616 15.1155 19.2229 15.2542 19.3364 15.432C19.4493 15.6098 19.5091 15.8186 19.5078 16.0318V18.866C19.5078 19.2931 19.3445 19.7027 19.0536 20.0047C18.7633 20.3067 18.369 20.4764 17.9578 20.4764ZM7.62509 7.59358C7.55723 7.59337 7.49004 7.60704 7.42688 7.63384C7.3644 7.66064 7.30729 7.69999 7.25891 7.74968C7.21121 7.79936 7.17292 7.8584 7.14672 7.92344C7.12051 7.98854 7.10708 8.05825 7.10641 8.12873C7.10641 8.14381 7.10707 8.15867 7.10842 8.17332C7.34558 11.351 8.87007 18.866 17.9269 19.4028C18.0633 19.4113 18.1976 19.363 18.3004 19.2686C18.4026 19.1742 18.465 19.0413 18.4731 18.8993L18.4744 18.866V16.0318L16.5267 15.2213L15.0439 16.7511L14.796 16.7189C10.3011 16.1338 9.6911 11.4638 9.6911 11.4155L9.66018 11.1578L11.1276 9.61725L10.3529 7.59358H7.62509Z" fill="#F5F5F5"/>
</svg>
