<svg width="50" height="50" viewBox="0 0 50 50" fill="none" xmlns="http://www.w3.org/2000/svg">
<path d="M41.6667 31.9809C39.0625 31.9809 36.5625 31.5713 34.2292 30.8135C33.8629 30.6988 33.4718 30.6839 33.0976 30.7705C32.7233 30.8571 32.38 31.0418 32.1042 31.305L27.5208 35.811C21.6066 32.8539 16.7995 28.128 13.7917 22.3136L18.375 17.7872C18.6509 17.5299 18.8465 17.2005 18.9387 16.8377C19.031 16.4749 19.0161 16.0938 18.8958 15.7391C18.1055 13.3797 17.7046 10.9111 17.7083 8.42715C17.7083 7.30067 16.7708 6.379 15.625 6.379H8.33333C7.1875 6.379 6.25 7.30067 6.25 8.42715C6.25 27.6593 22.1042 43.2458 41.6667 43.2458C42.8125 43.2458 43.75 42.3241 43.75 41.1976V34.0291C43.75 32.9026 42.8125 31.9809 41.6667 31.9809ZM39.5833 24.8124H43.75C43.75 19.9236 41.7746 15.2349 38.2583 11.778C34.7419 8.32108 29.9728 6.379 25 6.379V10.4753C33.0625 10.4753 39.5833 16.886 39.5833 24.8124ZM31.25 24.8124H35.4167C35.4167 19.1595 30.75 14.5716 25 14.5716V18.6679C28.4583 18.6679 31.25 21.4125 31.25 24.8124Z" fill="#970480"/>
</svg>
