<svg width="70" height="70" viewBox="0 0 70 70" fill="none" xmlns="http://www.w3.org/2000/svg">
<rect width="68.818" height="70" transform="translate(70 0.521576) rotate(90)" fill="white"/>
<path d="M9.47915 52.1351V43.5328C9.47915 42.9625 9.70962 42.4155 10.1199 42.0121C10.5301 41.6088 11.0865 41.3823 11.6667 41.3823C12.2468 41.3823 12.8032 41.6088 13.2134 42.0121C13.6237 42.4155 13.8542 42.9625 13.8542 43.5328V52.1351C13.7788 52.9865 14.0398 53.8337 14.5828 54.5011C15.1259 55.1684 15.9094 55.6047 16.7708 55.7193H53.1417C54.0031 55.6047 54.7866 55.1684 55.3296 54.5011C55.8727 53.8337 56.1336 52.9865 56.0583 52.1351V43.5328C56.0583 42.9625 56.2888 42.4155 56.699 42.0121C57.1093 41.6088 57.6657 41.3823 58.2458 41.3823C58.826 41.3823 59.3824 41.6088 59.7926 42.0121C60.2029 42.4155 60.4333 42.9625 60.4333 43.5328V52.1351C60.4763 53.1294 60.3195 54.1223 59.9718 55.0569C59.6241 55.9916 59.0923 56.8497 58.4069 57.5821C57.7216 58.3145 56.896 58.9068 55.9775 59.3253C55.059 59.7437 54.0656 59.9799 53.0542 60.0205H16.8583C15.8469 59.9799 14.8535 59.7437 13.935 59.3253C13.0165 58.9068 12.1909 58.3145 11.5055 57.5821C10.8201 56.8497 10.2884 55.9916 9.94067 55.0569C9.59296 54.1223 9.43613 53.1294 9.47915 52.1351Z" fill="#970480"/>
<path d="M21.1458 32.0632C21.1445 31.7806 21.2005 31.5007 21.3107 31.2397C21.4209 30.9787 21.583 30.742 21.7875 30.5435C22.1976 30.1407 22.7536 29.9145 23.3333 29.9145C23.913 29.9145 24.469 30.1407 24.8792 30.5435L35 40.4934L45.1208 30.5435C45.5355 30.1636 46.084 29.9568 46.6507 29.9666C47.2174 29.9764 47.7581 30.2021 48.1589 30.5962C48.5597 30.9902 48.7893 31.5218 48.7993 32.0789C48.8092 32.636 48.5989 33.1752 48.2125 33.5829L36.5458 45.0526C36.1357 45.4553 35.5797 45.6815 35 45.6815C34.4203 45.6815 33.8643 45.4553 33.4542 45.0526L21.7875 33.5829C21.583 33.3844 21.4209 33.1477 21.3107 32.8867C21.2005 32.6257 21.1445 32.3457 21.1458 32.0632Z" fill="#970480"/>
<path d="M32.8125 43.5328V11.9912C32.8125 11.4209 33.043 10.8739 33.4532 10.4706C33.8634 10.0672 34.4198 9.84067 35 9.84067C35.5802 9.84067 36.1366 10.0672 36.5468 10.4706C36.957 10.8739 37.1875 11.4209 37.1875 11.9912V43.5328C37.1875 44.1032 36.957 44.6502 36.5468 45.0535C36.1366 45.4568 35.5802 45.6834 35 45.6834C34.4198 45.6834 33.8634 45.4568 33.4532 45.0535C33.043 44.6502 32.8125 44.1032 32.8125 43.5328Z" fill="#970480"/>
</svg>
