<svg width="70" height="70" viewBox="0 0 70 70" fill="none" xmlns="http://www.w3.org/2000/svg">
<rect width="70" height="68.818" transform="translate(0 0.521576)" fill="white"/>
<path d="M36.75 41.8124C38.1424 41.8124 39.4777 42.3562 40.4623 43.3241C41.4469 44.292 42 45.6049 42 46.9737V48.6942C42 55.4762 35.49 62.4578 24.5 62.4578C13.51 62.4578 7 55.4762 7 48.6942V46.9737C7 45.6049 7.55312 44.292 8.53769 43.3241C9.52226 42.3562 10.8576 41.8124 12.25 41.8124H36.75ZM36.75 45.2533H12.25C11.7859 45.2533 11.3408 45.4345 11.0126 45.7572C10.6844 46.0798 10.5 46.5174 10.5 46.9737V48.6942C10.5 53.6422 15.512 59.0169 24.5 59.0169C33.488 59.0169 38.5 53.6422 38.5 48.6942V46.9737C38.5 46.5174 38.3156 46.0798 37.9874 45.7572C37.6593 45.4345 37.2141 45.2533 36.75 45.2533ZM24.5 19.4465C27.0527 19.4465 29.5009 20.4435 31.3059 22.218C33.1109 23.9926 34.125 26.3994 34.125 28.909C34.125 31.4186 33.1109 33.8254 31.3059 35.6C29.5009 37.3745 27.0527 38.3715 24.5 38.3715C21.9473 38.3715 19.4991 37.3745 17.6941 35.6C15.8891 33.8254 14.875 31.4186 14.875 28.909C14.875 26.3994 15.8891 23.9926 17.6941 22.218C19.4991 20.4435 21.9473 19.4465 24.5 19.4465ZM56 7.40338C57.7654 7.4037 59.4655 8.05981 60.7597 9.24026C62.0539 10.4207 62.8466 12.0383 62.979 13.769L63 14.2852V21.167C63.0006 22.9032 62.3336 24.5754 61.1328 25.8485C59.9319 27.1216 58.286 27.9014 56.525 28.0316L56 28.0488H50.7465L46.5535 33.5542C44.6985 35.9835 40.9395 34.9994 40.334 32.2604L40.2745 31.8785L40.25 31.4897V27.8251L39.977 27.7563C38.7189 27.3816 37.5934 26.6667 36.7288 25.6932C35.8643 24.7197 35.2955 23.5269 35.0875 22.2509L35.0175 21.6797L35 21.167V14.2852C34.9994 12.549 35.6664 10.8767 36.8672 9.60367C38.0681 8.3306 39.714 7.5508 41.475 7.42059L42 7.40338H56ZM24.5 22.8874C23.6957 22.8874 22.8992 23.0432 22.1561 23.3458C21.4129 23.6484 20.7377 24.092 20.169 24.6511C19.6002 25.2103 19.149 25.8741 18.8412 26.6047C18.5334 27.3352 18.375 28.1182 18.375 28.909C18.375 29.6998 18.5334 30.4828 18.8412 31.2134C19.149 31.9439 19.6002 32.6078 20.169 33.1669C20.7377 33.7261 21.4129 34.1696 22.1561 34.4722C22.8992 34.7748 23.6957 34.9306 24.5 34.9306C26.1245 34.9306 27.6824 34.2962 28.831 33.1669C29.9797 32.0376 30.625 30.506 30.625 28.909C30.625 27.312 29.9797 25.7804 28.831 24.6511C27.6824 23.5218 26.1245 22.8874 24.5 22.8874ZM56 10.8443H42C41.1427 10.8444 40.3153 11.1538 39.6747 11.7139C39.0341 12.2739 38.6248 13.0456 38.5245 13.8826L38.5 14.2852V21.167C38.5001 22.0098 38.8148 22.8232 39.3845 23.453C39.9542 24.0828 40.7391 24.4852 41.5905 24.5838L42 24.6079H43.75V31.4897L49 24.6079H56C56.8573 24.6078 57.6847 24.2984 58.3253 23.7383C58.9659 23.1783 59.3752 22.4066 59.4755 21.5696L59.5 21.167V14.2852C59.4999 13.4424 59.1852 12.6289 58.6155 11.9991C58.0458 11.3693 57.2609 10.967 56.4095 10.8684L56 10.8443Z" fill="#970480"/>
</svg>
