<svg width="36" height="26" viewBox="0 0 36 26" fill="none" xmlns="http://www.w3.org/2000/svg">
<path d="M35.1959 3.28756C33.9088 3.77572 32.5081 4.12706 31.0654 4.26389C32.5633 3.48148 33.685 2.2454 34.2201 0.787561C32.8145 1.52273 31.2747 2.03824 29.6689 2.31123C28.9978 1.68041 28.1861 1.17787 27.2844 0.834925C26.3828 0.49198 25.4104 0.315978 24.428 0.317886C20.4531 0.317886 17.2564 3.15073 17.2564 6.62705C17.2564 7.11522 17.3237 7.60339 17.433 8.07306C11.4812 7.79939 6.17297 5.29939 2.64395 1.47173C2.00092 2.43739 1.66395 3.53692 1.6681 4.6559C1.6681 6.84525 2.93418 8.77572 4.86483 9.91108C3.72707 9.87168 2.61594 9.59672 1.62183 9.10856V9.18622C1.62183 12.2521 4.08668 14.7927 7.37174 15.3771C6.75494 15.5179 6.12042 15.59 5.48315 15.5915C5.01626 15.5915 4.5746 15.5509 4.12874 15.4954C5.03729 17.9954 7.683 19.8112 10.8335 19.8704C8.36862 21.5679 5.28125 22.5664 1.92889 22.5664C1.3274 22.5664 0.772176 22.5479 0.195923 22.4887C3.37583 24.2824 7.14881 25.3179 11.212 25.3179C24.4028 25.3179 31.6206 15.7099 31.6206 7.3704C31.6206 7.09673 31.6206 6.82306 31.5996 6.54939C32.9961 5.65072 34.2201 4.53756 35.1959 3.28756Z" fill="#970480"/>
</svg>
