<svg width="50" height="50" viewBox="0 0 50 50" fill="none" xmlns="http://www.w3.org/2000/svg">
<g clip-path="url(#clip0_34_116)">
<path fill-rule="evenodd" clip-rule="evenodd" d="M36.2812 29.8262C35.6604 29.521 32.6167 28.0505 32.05 27.8457C31.4833 27.6429 31.0708 27.5425 30.6562 28.1529C30.2437 28.7591 29.0583 30.1314 28.6979 30.5369C28.3354 30.9445 27.975 30.9937 27.3562 30.6905C26.7375 30.3833 24.7417 29.7422 22.3771 27.6695C20.5375 26.0556 19.2938 24.0627 18.9333 23.4524C18.5729 22.8441 18.8937 22.5143 19.2042 22.2112C19.4833 21.9388 19.8229 21.5005 20.1333 21.1461C20.4437 20.7898 20.5458 20.5358 20.7521 20.1282C20.9604 19.7227 20.8562 19.3683 20.7 19.0632C20.5458 18.758 19.3083 15.7615 18.7917 14.5429C18.2896 13.357 17.7792 13.5188 17.4 13.4983C17.0375 13.4819 16.625 13.4778 16.2125 13.4778C15.8 13.4778 15.1292 13.6294 14.5625 14.2398C13.9937 14.8481 12.3958 16.3207 12.3958 19.3171C12.3958 22.3115 14.6125 25.2056 14.9229 25.6132C15.2333 26.0187 19.2875 32.1673 25.4979 34.8032C26.9771 35.43 28.1292 35.8048 29.0271 36.0833C30.5104 36.5483 31.8604 36.4827 32.9271 36.325C34.1146 36.1509 36.5896 34.8524 37.1063 33.431C37.6208 32.0096 37.6208 30.7909 37.4667 30.5369C37.3125 30.283 36.9 30.1314 36.2792 29.8262H36.2812ZM24.9854 44.9887H24.9771C21.2884 44.9894 17.6674 44.0145 14.4937 42.1664L13.7437 41.728L5.94792 43.7393L8.02917 36.2677L7.53958 35.5017C5.47737 32.2745 4.38603 28.5395 4.39167 24.7284C4.39583 13.5659 13.6333 4.4844 24.9937 4.4844C30.4937 4.4844 35.6646 6.594 39.5521 10.4199C41.4695 12.2972 42.9893 14.5297 44.0235 16.9882C45.0577 19.4466 45.5857 22.0823 45.5771 24.7427C45.5729 35.9051 36.3354 44.9887 24.9854 44.9887ZM42.5104 7.51362C40.215 5.24206 37.4838 3.44094 34.4752 2.21463C31.4666 0.988325 28.2403 0.361219 24.9833 0.369652C11.3292 0.369652 0.2125 11.2966 0.208333 24.7263C0.202006 29.0003 1.34245 33.2003 3.51458 36.9026L0 49.5254L13.1333 46.1377C16.7664 48.0837 20.8377 49.1034 24.975 49.1035H24.9854C38.6396 49.1035 49.7562 38.1765 49.7604 24.7447C49.7705 21.544 49.1349 18.3731 47.8905 15.4155C46.646 12.4578 44.8174 9.77206 42.5104 7.51362Z" fill="#970480"/>
</g>
<defs>
<clipPath id="clip0_34_116">
<rect width="50" height="49.1557" fill="white" transform="translate(0 0.369598)"/>
</clipPath>
</defs>
</svg>
