<svg width="36" height="26" viewBox="0 0 36 26" fill="none" xmlns="http://www.w3.org/2000/svg">
<path d="M35.5343 13.1708C35.5343 13.0862 35.5343 12.99 35.5304 12.8784C35.5265 12.5668 35.5187 12.2167 35.5109 11.8435C35.4796 10.7701 35.4249 9.70054 35.339 8.69254C35.2218 7.30365 35.0499 6.1456 34.8156 5.2761C34.5682 4.36871 34.0834 3.54114 33.4096 2.87612C32.7357 2.2111 31.8965 1.73192 30.9757 1.48647C29.8702 1.19408 27.7062 1.01325 24.6593 0.901679C23.2101 0.847816 21.6593 0.81319 20.1085 0.793954C19.5656 0.786259 19.0616 0.782412 18.6085 0.778564H17.4601C17.007 0.782412 16.5031 0.786259 15.9601 0.793954C14.4093 0.81319 12.8585 0.847816 11.4093 0.901679C8.36243 1.0171 6.19446 1.19792 5.0929 1.48647C4.17181 1.73132 3.33223 2.21029 2.6583 2.87541C1.98438 3.54052 1.49977 4.36841 1.25305 5.2761C1.01477 6.1456 0.846802 7.30365 0.729614 8.69254C0.643677 9.70054 0.588989 10.7701 0.557739 11.8435C0.54602 12.2167 0.542114 12.5668 0.538208 12.8784C0.538208 12.99 0.534302 13.0862 0.534302 13.1708V13.3863C0.534302 13.4709 0.534302 13.5671 0.538208 13.6787C0.542114 13.9903 0.549927 14.3404 0.557739 14.7136C0.588989 15.787 0.643677 16.8566 0.729614 17.8646C0.846802 19.2535 1.01868 20.4115 1.25305 21.281C1.75305 23.1239 3.2218 24.5782 5.0929 25.0707C6.19446 25.3631 8.36243 25.5439 11.4093 25.6554C12.8585 25.7093 14.4093 25.7439 15.9601 25.7632C16.5031 25.7709 17.007 25.7747 17.4601 25.7786H18.6085C19.0616 25.7747 19.5656 25.7709 20.1085 25.7632C21.6593 25.7439 23.2101 25.7093 24.6593 25.6554C27.7062 25.54 29.8741 25.3592 30.9757 25.0707C32.8468 24.5782 34.3156 23.1277 34.8156 21.281C35.0538 20.4115 35.2218 19.2535 35.339 17.8646C35.4249 16.8566 35.4796 15.787 35.5109 14.7136C35.5226 14.3404 35.5265 13.9903 35.5304 13.6787C35.5304 13.5671 35.5343 13.4709 35.5343 13.3863V13.1708ZM32.7218 13.3709C32.7218 13.4517 32.7218 13.5402 32.7179 13.6441C32.714 13.9442 32.7062 14.275 32.6984 14.6328C32.671 15.6562 32.6163 16.6796 32.5343 17.6299C32.4288 18.8687 32.2804 19.8844 32.0968 20.5654C31.8546 21.4542 31.1437 22.1582 30.2452 22.3929C29.4249 22.6084 27.3585 22.7815 24.5499 22.8854C23.1281 22.9392 21.5968 22.9739 20.0695 22.9931C19.5343 23.0008 19.0382 23.0046 18.5929 23.0046H17.4757L15.9991 22.9931C14.4718 22.9739 12.9445 22.9392 11.5187 22.8854C8.71008 22.7776 6.63977 22.6084 5.82336 22.3929C4.92493 22.1544 4.21399 21.4542 3.9718 20.5654C3.78821 19.8844 3.63977 18.8687 3.5343 17.6299C3.45227 16.6796 3.40149 15.6562 3.37024 14.6328C3.35852 14.275 3.35461 13.9403 3.35071 13.6441C3.35071 13.5402 3.3468 13.4478 3.3468 13.3709V13.1862C3.3468 13.1054 3.3468 13.0169 3.35071 12.9131C3.35461 12.613 3.36243 12.2821 3.37024 11.9243C3.39758 10.9009 3.45227 9.87752 3.5343 8.92723C3.63977 7.68838 3.78821 6.67269 3.9718 5.99171C4.21399 5.10297 4.92493 4.39891 5.82336 4.16422C6.64368 3.94877 8.71008 3.77564 11.5187 3.67176C12.9406 3.6179 14.4718 3.58327 15.9991 3.56404C16.5343 3.55634 17.0304 3.5525 17.4757 3.5525H18.5929L20.0695 3.56404C21.5968 3.58327 23.1241 3.6179 24.5499 3.67176C27.3585 3.77949 29.4288 3.94877 30.2452 4.16422C31.1437 4.40276 31.8546 5.10297 32.0968 5.99171C32.2804 6.67269 32.4288 7.68838 32.5343 8.92723C32.6163 9.87752 32.6671 10.9009 32.6984 11.9243C32.7101 12.2821 32.714 12.6168 32.7179 12.9131C32.7179 13.0169 32.7218 13.1093 32.7218 13.1862V13.3709ZM14.5577 18.434L23.6202 13.2401L14.5577 8.12313V18.434Z" fill="#970480"/>
</svg>
